<?xml version="1.0" encoding="UTF-8" standalone="no"?><!DOCTYPE svg PUBLIC "-//W3C//DTD SVG 1.1//EN" "http://www.w3.org/Graphics/SVG/1.1/DTD/svg11.dtd"><svg width="100%" height="100%" viewBox="0 0 432 331" version="1.1" xmlns="http://www.w3.org/2000/svg" xmlns:xlink="http://www.w3.org/1999/xlink" xml:space="preserve" xmlns:serif="http://www.serif.com/" style="fill-rule:evenodd;clip-rule:evenodd;stroke-linejoin:round;stroke-miterlimit:2;"><path d="M116.586,11.756c88.042,73.143 -61.63,107.683 73.82,107.006c135.45,-0.678 95.492,-14.9 106.328,-47.408c10.836,-32.508 87.365,-36.571 109.037,-14.222c21.672,22.349 48.085,54.857 -8.127,79.238c-56.211,24.381 -93.46,-16.254 -88.719,26.413c4.74,42.666 -73.143,14.222 -48.085,59.598c25.058,45.375 -31.153,31.153 -8.804,65.016c22.349,33.862 -8.127,39.28 -41.312,42.666c-33.186,3.386 -102.265,-14.899 -82.625,-52.825c19.64,-37.926 48.085,-29.799 30.476,-64.339c-17.608,-34.539 35.217,-4.063 16.932,-34.539c-18.286,-30.477 -58.921,-18.963 -69.08,-9.482c-10.158,9.482 -21.672,29.122 -50.116,9.482c-28.445,-19.641 -51.471,25.058 -55.534,-72.466c-4.064,-97.524 7.449,-26.413 43.343,-77.884c35.895,-51.471 72.466,-16.254 72.466,-16.254Z" style="fill:#99e908;"/></svg>